<?xml version="1.0" encoding="UTF-8"?><svg id="a" xmlns="http://www.w3.org/2000/svg" viewBox="0 0 512 512"><defs><style>.b{fill:#fff;}</style></defs><path class="b" d="M87.3873,182.6185l12.6144,4.609,12.1806,6.4374,11.1849,9.4236,3.4632-11.9179,3.222-10.9857,5.3179-10.2545,2.9973-11.0647,3.8053-10.796,1.9553-11.3327,4.8916-10.5405.1709-11.6738,4.1777-10.8596-.0072-12.1418,10.6152,2.4391,9.3317,4.6088,10.3282,1.0911,11.3824,5.3827,12.3235,2.2138,8.3898,7.711-6.9647,5.061-10.6591,1.0308-7.3661,10.263-4.755,11.4387-9.0862,8.395-7.0944,9.8026-6.3452,10.3673-6.7491,10.0889-7.6996,9.3645-8.2033,8.9376-6.1306,9.4808,9.0746,7.8242,8.2283,9.5457,10.0368,8.2065,2.0558,12.82-3.4327,10.6516-2.7719,10.7556-6.6411,9.127-10.4835,2.3761-9.1033-3.8103-3.192-10.082-4.2873-10.3295-1.8776-11.3899-4.5347-10.3459-5.9061-9.6715-5.9142-10.4392-6.4692-10.1005-7.4213-9.4368-6.4764-10.0833,1.8241-2.1975ZM365.8178,124.3215l6.463-9.8569,7.4728-8.3775,8.6958-6.0959,11.3984,6.6569,11.3625,7.8552,9.672,9.9392,5.6445,6.5898-5.8794,6.6578-7.168,5.3719-2.2077,11.8153,2.0798,12.3517-2.5565,12.224,1.3749,12.344-.1281,12.2978-2.3476,12.204,1.2499,12.3666-2.867,12.1548.9885,12.3686-2.2986,12.1647-.7989,12.2577-1.3705,12.2089-1.3589,12.2082,1.3734,12.4903-3.9129,11.9194-1.5683,12.1629-.7865,12.2884-1.5137,12.2163-3.0874,11.9035-5.3595,12.2277-5.6728,12.3111-10.6689,8.3827-11.005,2.9623-9.9675,6.3119-11.3775,1.7389-11.4015-.5084-5.809-5.3258-2.6978-11.3174-4.6159-11.1542-11.3402-4.4303-10.4864-4.916-11.3909-2.669-11.6553-4.8009-3.9198,10.8086-4.5227,9.9701-7.7142,7.8527-10.2801,3.7338-8.4369-6.6519-2.0186-11.0334-3.5956-10.6158-3.1879-15.2418-10.3711,2.8884-10.8847,5.8797-11.6278,3.798-12.5245,1.0759-11.4171,4.3704-10.9596,5.876-12.0828,2.3279-11.978,2.5963-11.1699,5.3332-11.9815,2.4989-3.887,9.1934-4.3491,8.9992-6.6465-11.01-2.9582-12.0215-1.5534-12.3301-2.9127-12.0238-3.826-12.3169,13.04,1.8342,10.1249-.5978,9.3394-2.4715,6.0229-9.4458,6.4195-9.9993,8.1215-8.9782,5.4959-10.5764,4.1122-11.341,7.3862-9.4759,5.5966-10.4862,4.0565-11.3004,7.368-9.5565,5.702-9.9803,4.5865-10.545,4.7276-10.4642,4.1898-10.7059,6.0439-9.8457,5.6113-10.1034,1.1173-11.907,4.3935-10.5431,4.1307-11.0415,12.0082,4.1338,11.2756,5.3245,12.1063,3.1313,10.7446,6.5204,10.1399,6.3064-8.27,4.3722-8.9917,3.6488-7.0146,9.1796-6.2669,10.4691-7.7349,9.4774-6.688,10.1903-5.9113,10.7171-7.7514,9.4599-6.2675,10.5077-9.3797,8.2214-5.7212,10.9444-8.2743,8.9913-6.9625,10.0248-8.8887,7.9836-5.471,10.7191-7.1155,9.4335-9.0446,7.7677-8.9137,9.647,13.9368-.2267,12.4529-3.4195,12.5725-1.3467,12.5904-1.1125,12.8525.8501,12.3453-3.2785,11.3754-2.1006-2.8276-9.8255-2.4057-11.3213-4.0938-10.7863-5.5972-10.0841-4.3113-9.8998,1.8175-2.3631,8.9809,7.6411,10.0635,6.6287,8.935,8.0474,10.1753,6.7132,6.7441,10.1859,9.8123,7.5455,4.2731,9.576,5.933,8.6237-.4045,11.5656,12.8001-1.6055,11.434.9226,11.2454,3.667,11.5678-.7233,11.4937.1526,11.4274,1.8195,10.4557-4.9932,2.6958-11.3726,3.5673-11.0653-.7997-11.8162,3.9537-11.5071-.544-12.1011,3.6567-11.6433-1.7495-12.1604,1.8855-11.8352.1161-11.9637,1.5667-11.876,2.0258-11.8717-1.9583-12.0565.7515-11.9309.335-11.9507.5842-11.9428,2.2201-11.906-.2285-11.9716,1.3134-11.9402-2.8828-12.0118,1.4586-10.9683-11.1934-2.1698-11.5383-.3894-11.5386-.027-11.5349,1.3181-11.5379-.2568-11.5419,1.0318-11.5382.0209-11.5461-.546-11.5461.2165-12.9984-.2898-11.4964,1.6018-4.7328-12.4939,15.3761,1.9037,14.5994,2.4253,12.5132-.3899,12.5135-2.1977,12.5095,1.3817,12.5127.2574,12.5171,1.4229,12.5131-2.5007,12.5458.0615,12.6656,1.5601Z"/></svg>